<svg width="24" height="24" viewBox="0 0 24 24" fill="none" xmlns="http://www.w3.org/2000/svg">
<path fill-rule="evenodd" clip-rule="evenodd" d="M18.7815 6.28033C19.0744 5.98744 19.0744 5.51256 18.7815 5.21967C18.4886 4.92678 18.0137 4.92678 17.7208 5.21967L12.0006 10.9399L6.28033 5.21967C5.98744 4.92678 5.51256 4.92678 5.21967 5.21967C4.92678 5.51256 4.92678 5.98744 5.21967 6.28033L10.9399 12.0006L5.21967 17.7208C4.92678 18.0137 4.92678 18.4886 5.21967 18.7815C5.51256 19.0744 5.98744 19.0744 6.28033 18.7815L12.0006 13.0612L17.7208 18.7815C18.0137 19.0744 18.4886 19.0744 18.7815 18.7815C19.0744 18.4886 19.0744 18.0137 18.7815 17.7208L13.0612 12.0006L18.7815 6.28033Z" fill="#838487"/>
</svg>
