<svg width="28" height="28" viewBox="0 0 28 28" fill="none" xmlns="http://www.w3.org/2000/svg">
<path d="M0 11.6667C0 5.22335 5.22334 0 11.6667 0H16.3333C22.7767 0 28 5.22334 28 11.6667V16.3333C28 22.7767 22.7767 28 16.3333 28H11.6667C5.22335 28 0 22.7767 0 16.3333V11.6667Z" fill="white"/>
<circle cx="14" cy="14" r="14" fill="white"/>
<path d="M23.1295 20.8516C22.5786 20.4145 22.013 19.9738 21.451 19.5422C21.2901 19.3945 21.0968 19.2865 20.8867 19.2269C20.6765 19.1672 20.4553 19.1576 20.2408 19.1988C19.6256 19.3274 19.15 19.5477 19.0122 20.2199C18.9325 20.4281 18.8302 20.627 18.7074 20.813L16.871 16.8959C16.8232 17.3348 16.8012 17.827 16.7094 18.3063C16.5257 19.2245 15.3578 19.7259 14.5314 19.2851C13.6683 18.8242 12.9392 18.2677 12.7078 17.2651C12.686 17.1991 12.6538 17.1371 12.6123 17.0814C12.5687 17.0341 12.5208 16.9911 12.4691 16.9529L11.5141 19.5239L9.98624 18.097C9.75117 18.3945 9.55468 18.6479 9.35084 18.9031C9.18556 19.1052 9.01293 19.3017 8.84215 19.4981C7.87986 20.6 7.78988 20.6129 6.93411 19.4486C6.59804 18.9913 6.2583 18.8756 5.73309 19.0813C5.27186 19.2589 4.78649 19.366 4.29333 19.399C4.93975 18.7067 5.59719 18.0235 6.22892 17.3165C7.34363 16.0732 8.47119 14.8373 9.53448 13.55C9.94951 13.0468 10.2029 12.4132 10.5372 11.8531C10.8475 11.3224 11.0495 11.2526 11.6096 11.4693C11.953 11.6015 12.1606 11.7099 12.4948 11.8586C13.1008 12.1268 13.1008 12.4279 12.695 12.9366C12.2495 13.5425 11.8411 14.1748 11.4719 14.83C12.0651 14.1487 12.6674 13.471 13.2496 12.7787C13.4571 12.5344 13.6168 12.3765 13.918 12.6758C14.1347 12.8962 14.322 12.7952 14.4689 12.5565C14.6761 12.1607 14.9295 11.7908 15.2237 11.4546C15.3247 11.5869 15.4202 11.6621 15.5175 11.7797C16.9867 13.5426 18.4558 15.3093 19.9672 17.0465C20.362 17.5038 20.9093 17.8288 21.3133 18.2769C22.0148 19.0537 22.6594 19.882 23.3333 20.6863L23.1405 20.8534" fill="#FD683B"/>
<path d="M13.0806 9.96698C13.1082 8.84676 13.4351 7.88632 14.4341 7.26193C14.9226 6.96076 15.4955 6.9424 15.569 7.23439C15.7049 7.73022 15.2586 7.90468 14.9391 8.05894C14.0778 8.47213 13.5452 9.17732 13.0806 9.96698Z" fill="#FD683B"/>
<path d="M13.8776 10.3103C14.2614 9.75935 15.2586 9.41961 15.8297 9.68773C15.9242 9.73888 16.0073 9.80873 16.0739 9.89303C16.1405 9.97733 16.1893 10.0743 16.2172 10.1781C16.1618 10.2707 16.0828 10.3469 15.9882 10.3988C15.8937 10.4508 15.787 10.4766 15.6791 10.4737C15.0786 10.4572 14.4799 10.3709 13.8721 10.3103" fill="#FD683B"/>
<path d="M12.5426 8.71282C12.1165 8.27943 11.639 7.83134 11.2093 7.33918C11.0881 7.19594 10.9228 6.94068 11.0624 6.71112C11.202 6.48157 11.5711 6.61747 11.7217 6.71112C12.4673 7.22348 12.436 8.04436 12.5426 8.69813" fill="#FD683B"/>
<path d="M12.2616 9.74668C11.6702 9.45101 11.1469 9.54651 10.64 9.93032C10.5555 9.99459 10.3131 10.035 10.225 9.91195C10.2024 9.82316 10.2024 9.73014 10.2248 9.64132C10.2472 9.5525 10.2915 9.47068 10.3535 9.40327C10.8604 8.86336 11.852 9.02313 12.2542 9.74668" fill="#FD683B"/>
<path d="M13.0898 7.1187C13.0558 6.81876 13.0801 6.51508 13.1614 6.22436C13.1903 6.14353 13.2459 6.07496 13.319 6.0299C13.3921 5.98485 13.4783 5.966 13.5636 5.97644C13.6995 6.02786 13.626 6.27945 13.5746 6.39331C13.4473 6.64714 13.3037 6.89251 13.1449 7.12788C13.1008 7.12788 13.1357 7.12788 13.0898 7.12788" fill="#FD683B"/>
</svg>
